<svg width="20" height="20" viewBox="0 0 20 20" fill="none" xmlns="http://www.w3.org/2000/svg">
<g clip-path="url(#clip0_30095_320)">
<path d="M9.99996 18.3337C7.78982 18.3337 5.67021 17.4557 4.1074 15.8929C2.5446 14.3301 1.66663 12.2105 1.66663 10.0003C1.66663 7.79019 2.5446 5.67057 4.1074 4.10777C5.67021 2.54497 7.78982 1.66699 9.99996 1.66699C12.2101 1.66699 14.3297 2.45717 15.8925 3.86369C17.4553 5.27021 18.3333 7.17787 18.3333 9.16699C18.3333 10.2721 17.8943 11.3319 17.1129 12.1133C16.3315 12.8947 15.2717 13.3337 14.1666 13.3337H12.2916C12.0208 13.3337 11.7553 13.4091 11.5249 13.5515C11.2946 13.6938 11.1084 13.8976 10.9873 14.1398C10.8661 14.382 10.8149 14.6532 10.8392 14.923C10.8635 15.1927 10.9625 15.4503 11.125 15.667L11.375 16.0003C11.5375 16.217 11.6364 16.4746 11.6607 16.7444C11.6851 17.0141 11.6338 17.2853 11.5127 17.5275C11.3915 17.7697 11.2054 17.9735 10.975 18.1159C10.7446 18.2582 10.4791 18.3337 10.2083 18.3337H9.99996Z" stroke="#9810FA" stroke-width="1.66667" stroke-linecap="round" stroke-linejoin="round"/>
<path d="M11.25 5.83333C11.4802 5.83333 11.6667 5.64679 11.6667 5.41667C11.6667 5.18655 11.4802 5 11.25 5C11.0199 5 10.8334 5.18655 10.8334 5.41667C10.8334 5.64679 11.0199 5.83333 11.25 5.83333Z" fill="#9810FA" stroke="#9810FA" stroke-width="1.66667" stroke-linecap="round" stroke-linejoin="round"/>
<path d="M14.5833 9.16634C14.8134 9.16634 15 8.97979 15 8.74967C15 8.51956 14.8134 8.33301 14.5833 8.33301C14.3532 8.33301 14.1666 8.51956 14.1666 8.74967C14.1666 8.97979 14.3532 9.16634 14.5833 9.16634Z" fill="#9810FA" stroke="#9810FA" stroke-width="1.66667" stroke-linecap="round" stroke-linejoin="round"/>
<path d="M5.41667 10.8333C5.64679 10.8333 5.83333 10.6468 5.83333 10.4167C5.83333 10.1865 5.64679 10 5.41667 10C5.18655 10 5 10.1865 5 10.4167C5 10.6468 5.18655 10.8333 5.41667 10.8333Z" fill="#9810FA" stroke="#9810FA" stroke-width="1.66667" stroke-linecap="round" stroke-linejoin="round"/>
<path d="M7.08329 6.66634C7.31341 6.66634 7.49996 6.47979 7.49996 6.24967C7.49996 6.01956 7.31341 5.83301 7.08329 5.83301C6.85317 5.83301 6.66663 6.01956 6.66663 6.24967C6.66663 6.47979 6.85317 6.66634 7.08329 6.66634Z" fill="#9810FA" stroke="#9810FA" stroke-width="1.66667" stroke-linecap="round" stroke-linejoin="round"/>
</g>
<defs>
<clipPath id="clip0_30095_320">
<rect width="20" height="20" fill="white"/>
</clipPath>
</defs>
</svg>
