<svg width="40" height="40" viewBox="0 0 40 40" fill="none" xmlns="http://www.w3.org/2000/svg">
<rect width="40" height="40" rx="10" fill="url(#paint0_linear_30102_2497)"/>
<path d="M24.5834 25.8337H17.5001C16.4183 25.8334 15.3579 25.5323 14.4374 24.9641C13.5169 24.3958 12.7725 23.5828 12.2874 22.6158C11.8024 21.6489 11.5958 20.5661 11.6907 19.4885C11.7856 18.4109 12.1783 17.3809 12.8249 16.5136C13.4715 15.6464 14.3465 14.976 15.3522 14.5774C16.3579 14.1788 17.4546 14.0677 18.5198 14.2565C19.5849 14.4454 20.5766 14.9267 21.384 15.6467C22.1914 16.3667 22.7826 17.297 23.0917 18.3337H24.5834C25.5779 18.3337 26.5318 18.7287 27.235 19.432C27.9383 20.1353 28.3334 21.0891 28.3334 22.0837C28.3334 23.0782 27.9383 24.032 27.235 24.7353C26.5318 25.4386 25.5779 25.8337 24.5834 25.8337Z" stroke="white" stroke-width="1.66667" stroke-linecap="round" stroke-linejoin="round"/>
<defs>
<linearGradient id="paint0_linear_30102_2497" x1="0" y1="0" x2="40" y2="40" gradientUnits="userSpaceOnUse">
<stop stop-color="#2B7FFF"/>
<stop offset="1" stop-color="#155DFC"/>
</linearGradient>
</defs>
</svg>
