<svg width="19" height="14" viewBox="0 0 19 14" fill="none" xmlns="http://www.w3.org/2000/svg">
<path d="M13.7485 12.5002H6.66521C5.58343 12.4999 4.52304 12.1988 3.60253 11.6306C2.68201 11.0623 1.93765 10.2493 1.45261 9.28234C0.967565 8.3154 0.760958 7.23262 0.855874 6.15501C0.950789 5.07741 1.34349 4.04742 1.99009 3.18015C2.63668 2.31288 3.51171 1.64249 4.51738 1.2439C5.52305 0.845313 6.61975 0.734225 7.68492 0.92305C8.75009 1.11188 9.74178 1.59318 10.5492 2.31317C11.3565 3.03316 11.9478 3.96348 12.2569 5.00016H13.7485C14.7431 5.00016 15.6969 5.39525 16.4002 6.09851C17.1035 6.80178 17.4985 7.7556 17.4985 8.75016C17.4985 9.74473 17.1035 10.6986 16.4002 11.4018C15.6969 12.1051 14.7431 12.5002 13.7485 12.5002Z" stroke="#0A0A0A" stroke-width="1.66667" stroke-linecap="round" stroke-linejoin="round"/>
</svg>
