<svg width="88" height="88" viewBox="0 0 88 88" fill="none" xmlns="http://www.w3.org/2000/svg">
<g filter="url(#filter0_dd_30002_29)">
<rect x="12" y="2" width="63.99" height="63.99" rx="16" fill="url(#paint0_linear_30002_29)"/>
<path d="M43.995 28.6634C50.6204 28.6634 55.9913 26.8731 55.9913 24.6646C55.9913 22.4562 50.6204 20.6659 43.995 20.6659C37.3697 20.6659 31.9988 22.4562 31.9988 24.6646C31.9988 26.8731 37.3697 28.6634 43.995 28.6634Z" stroke="white" stroke-width="2.66667" stroke-linecap="round" stroke-linejoin="round"/>
<path d="M31.9988 24.6646V43.3254C31.9988 44.3859 33.2627 45.403 35.5124 46.1529C37.7621 46.9028 40.8134 47.3241 43.995 47.3241C47.1766 47.3241 50.2279 46.9028 52.4777 46.1529C54.7274 45.403 55.9913 44.3859 55.9913 43.3254V24.6646" stroke="white" stroke-width="2.66667" stroke-linecap="round" stroke-linejoin="round"/>
<path d="M31.9988 33.995C31.9988 35.0555 33.2627 36.0726 35.5124 36.8225C37.7621 37.5724 40.8134 37.9937 43.995 37.9937C47.1766 37.9937 50.2279 37.5724 52.4777 36.8225C54.7274 36.0726 55.9913 35.0555 55.9913 33.995" stroke="white" stroke-width="2.66667" stroke-linecap="round" stroke-linejoin="round"/>
</g>
<defs>
<filter id="filter0_dd_30002_29" x="0" y="0" width="87.99" height="87.99" filterUnits="userSpaceOnUse" color-interpolation-filters="sRGB">
<feFlood flood-opacity="0" result="BackgroundImageFix"/>
<feColorMatrix in="SourceAlpha" type="matrix" values="0 0 0 0 0 0 0 0 0 0 0 0 0 0 0 0 0 0 127 0" result="hardAlpha"/>
<feMorphology radius="4" operator="erode" in="SourceAlpha" result="effect1_dropShadow_30002_29"/>
<feOffset dy="4"/>
<feGaussianBlur stdDeviation="3"/>
<feComposite in2="hardAlpha" operator="out"/>
<feColorMatrix type="matrix" values="0 0 0 0 0 0 0 0 0 0 0 0 0 0 0 0 0 0 0.1 0"/>
<feBlend mode="normal" in2="BackgroundImageFix" result="effect1_dropShadow_30002_29"/>
<feColorMatrix in="SourceAlpha" type="matrix" values="0 0 0 0 0 0 0 0 0 0 0 0 0 0 0 0 0 0 127 0" result="hardAlpha"/>
<feMorphology radius="3" operator="erode" in="SourceAlpha" result="effect2_dropShadow_30002_29"/>
<feOffset dy="10"/>
<feGaussianBlur stdDeviation="7.5"/>
<feComposite in2="hardAlpha" operator="out"/>
<feColorMatrix type="matrix" values="0 0 0 0 0 0 0 0 0 0 0 0 0 0 0 0 0 0 0.1 0"/>
<feBlend mode="normal" in2="effect1_dropShadow_30002_29" result="effect2_dropShadow_30002_29"/>
<feBlend mode="normal" in="SourceGraphic" in2="effect2_dropShadow_30002_29" result="shape"/>
</filter>
<linearGradient id="paint0_linear_30002_29" x1="12" y1="2" x2="75.99" y2="65.99" gradientUnits="userSpaceOnUse">
<stop stop-color="#155DFC"/>
<stop offset="1" stop-color="#1447E6"/>
</linearGradient>
</defs>
</svg>
