<svg width="20" height="20" viewBox="0 0 20 20" fill="none" xmlns="http://www.w3.org/2000/svg">
<path d="M15.8254 9.16211H4.16461C3.2446 9.16211 2.49878 9.90793 2.49878 10.8279V16.6584C2.49878 17.5784 3.2446 18.3242 4.16461 18.3242H15.8254C16.7455 18.3242 17.4913 17.5784 17.4913 16.6584V10.8279C17.4913 9.90793 16.7455 9.16211 15.8254 9.16211Z" stroke="#99A1AF" stroke-width="1.66667" stroke-linecap="round" stroke-linejoin="round"/>
<path d="M5.83044 9.16214V5.83048C5.83044 4.72596 6.26921 3.66668 7.05022 2.88567C7.83123 2.10466 8.89051 1.66589 9.99503 1.66589C11.0995 1.66589 12.1588 2.10466 12.9398 2.88567C13.7208 3.66668 14.1596 4.72596 14.1596 5.83048V9.16214" stroke="#99A1AF" stroke-width="1.66667" stroke-linecap="round" stroke-linejoin="round"/>
</svg>
